# xmcd CD database file
#
# Track frame offsets:
#	150
#	29310
#	71110
#	96984
#	198793
#
# Disc length: 2948 seconds
#
# Revision: 0
# Processed by: cddbd v1.5.2PL0 Copyright (c) Steve Scherf et al.
# Submitted via: CDex 1.70beta2
#
DISCID=3f0b8205
DTITLE=Irakere - Life
DYEAR=1900
DGENRE=Jazz
TTITLE0=01 juana mil ciento - 01 juana mil ciento
TTITLE1=02 - ilya
TTITLE2=03 - adagio
TTITLE3=04 Misa Negra - 04 Misa Negra
TTITLE4=05 - Aguanile
EXTD=
EXTT0=
EXTT1=
EXTT2=
EXTT3=
EXTT4=
PLAYORDER=
